<svg width="16.000000" height="15.000000" viewBox="0 0 16 15" fill="none" xmlns="http://www.w3.org/2000/svg" xmlns:xlink="http://www.w3.org/1999/xlink">
	<desc>
			Created with Pixso.
	</desc>
	<defs/>
	<mask id="mask_0_637" fill="white">
		<path id="Combined Shape" d="M14.5 0L1.5 0C0.67157 0 0 0.671875 0 1.5C0 2.32812 0.67157 3 1.5 3L14.5 3C15.3284 3 16 2.32812 16 1.5C16 0.671875 15.3284 0 14.5 0ZM1.5 6L14.5 6C15.3284 6 16 6.67188 16 7.5C16 8.32812 15.3284 9 14.5 9L1.5 9C0.67157 9 0 8.32812 0 7.5C0 6.67188 0.67157 6 1.5 6ZM14.5 12L1.5 12C0.67157 12 0 12.6719 0 13.5C0 14.3281 0.67157 15 1.5 15L14.5 15C15.3284 15 16 14.3281 16 13.5C16 12.6719 15.3284 12 14.5 12Z" clip-rule="evenodd" fill="" fill-opacity="1.000000" fill-rule="evenodd"/>
	</mask>
	<path id="Combined Shape" d="M14.5 0L1.5 0C0.67157 0 0 0.671875 0 1.5C0 2.32812 0.67157 3 1.5 3L14.5 3C15.3284 3 16 2.32812 16 1.5C16 0.671875 15.3284 0 14.5 0ZM1.5 6L14.5 6C15.3284 6 16 6.67188 16 7.5C16 8.32812 15.3284 9 14.5 9L1.5 9C0.67157 9 0 8.32812 0 7.5C0 6.67188 0.67157 6 1.5 6ZM14.5 12L1.5 12C0.67157 12 0 12.6719 0 13.5C0 14.3281 0.67157 15 1.5 15L14.5 15C15.3284 15 16 14.3281 16 13.5C16 12.6719 15.3284 12 14.5 12Z" clip-rule="evenodd" fill="#333D4B" fill-opacity="1.000000" fill-rule="evenodd" mask="url(#mask_0_637)"/>
	<path id="Combined Shape" d="" fill="#979797" fill-opacity="0.000000" fill-rule="nonzero"/>
</svg>
